<svg xmlns="http://www.w3.org/2000/svg" xmlns:xlink="http://www.w3.org/1999/xlink" viewBox="0 0 4001 6001"><defs><style>.cls-1{stroke:#c7c7c7;stroke-miterlimit:10;fill:url(#Dégradé_sans_nom_13);}.cls-10,.cls-2{fill:#60c1ae;}.cls-3{fill:#052f45;}.cls-10,.cls-12,.cls-15,.cls-3,.cls-5,.cls-6,.cls-7,.cls-8,.cls-9{fill-rule:evenodd;}.cls-4,.cls-5{fill:#fe526c;}.cls-6{fill:#f1f2f2;}.cls-11,.cls-7{fill:#ffba00;}.cls-14,.cls-15,.cls-8{fill:#fff;}.cls-9{fill:#ededed;}.cls-12{fill:#00454d;}.cls-13{fill:#1a1a1a;}.cls-15{opacity:0.23;}</style><radialGradient id="Dégradé_sans_nom_13" cx="2018.83" cy="2998.71" r="498.26" gradientTransform="translate(-11956.83 -23328.37) scale(6.91 8.78)" gradientUnits="userSpaceOnUse"><stop offset="0" stop-color="#fff"/><stop offset="0.51" stop-color="#fdfdfd"/><stop offset="0.69" stop-color="#f6f6f6"/><stop offset="0.82" stop-color="#ebebeb"/><stop offset="0.92" stop-color="#dadada"/><stop offset="1" stop-color="#c7c7c7"/></radialGradient></defs><g id="Calque_2" data-name="Calque 2"><g id="Слой_1" data-name="Слой 1"><rect class="cls-1" x="0.5" y="0.5" width="4000" height="6000"/><rect class="cls-2" x="1332.27" y="2748" width="1063.86" height="1118.91"/><path class="cls-3" d="M1911.18,2592.6c7.5,11.21,11.48,22,10.77,31.69a235,235,0,0,0-57.74-7.15,231.15,231.15,0,0,0-88.38,17.31,215.94,215.94,0,0,0-30.72,15.18A233.63,233.63,0,0,0,1654,2748a231.59,231.59,0,0,0-23.93,94.2c-.09,3.09-.17,6.18-.17,9.27h-28.79c0-2,0-4.15.18-6.18a260.69,260.69,0,0,1,20.92-97.29,263.15,263.15,0,0,1,92.88-113.19,243.73,243.73,0,0,1,26.05-15.89,261.4,261.4,0,0,1,123.07-30.55A257,257,0,0,1,1911.18,2592.6Z"/><path class="cls-3" d="M2127.3,2851.46h-28.78c0-3.09-.08-6.18-.17-9.27a234.45,234.45,0,0,0-151.14-209.86c.34-2,.6-4.06.79-6.18a62,62,0,0,0-3.62-25.34,262.3,262.3,0,0,1,182.75,244.47C2127.3,2847.31,2127.3,2849.43,2127.3,2851.46Z"/><path class="cls-3" d="M1618.67,2904.43a32.18,32.18,0,1,0-32.17-32.18A32.23,32.23,0,0,0,1618.67,2904.43Z"/><path class="cls-3" d="M2109.73,2904.43a32.18,32.18,0,1,0-32.16-32.18A32.23,32.23,0,0,0,2109.73,2904.43Z"/><rect class="cls-4" x="1020.28" y="3027.4" width="798.22" height="839.5"/><path class="cls-3" d="M1419.4,2907.64A197.34,197.34,0,0,1,1616.78,3105H1595.2a175.81,175.81,0,0,0-351.61,0H1222a197.34,197.34,0,0,1,197.39-197.39Z"/><path class="cls-3" d="M1235.17,3144.77a24.14,24.14,0,1,0-24.13-24.14A24.19,24.19,0,0,0,1235.17,3144.77Z"/><path class="cls-3" d="M1603.63,3144.77a24.14,24.14,0,1,0-24.16-24.14A24.18,24.18,0,0,0,1603.63,3144.77Z"/><path class="cls-5" d="M1499.32,2618.57c8.13,1.69,18.93-2.32,24-8.92l90.41-118c5-6.59,7.55-18.58,5.51-26.63l-36.09-144.16c-2-8.06-10.33-16-18.45-17.71l-464.73-96.29a15.14,15.14,0,0,0-17.85,11.72l-26.55,128.12c-1.69,8.13-4.44,21.44-6.12,29.56l-26.55,128.12a15.14,15.14,0,0,0,11.72,17.84Z"/><path class="cls-3" d="M1557.28,2431.06c20.3,4.2,33.48,23.42,29.43,43s-23.78,31.92-44.06,27.72-33.47-23.43-29.43-42.95S1537,2426.84,1557.28,2431.06Z"/><path class="cls-6" d="M1554.38,2445.08c12.23,2.54,20.2,14.12,17.77,25.89s-14.36,19.29-26.59,16.74-20.21-14.12-17.77-25.92S1542.13,2442.54,1554.38,2445.08Z"/><path class="cls-3" d="M1948,2626.15c-.19,2.12-.45,4.15-.79,6.18a222.28,222.28,0,0,0-25.26-8c.71-9.71-3.27-20.48-10.77-31.69a260.89,260.89,0,0,1,33.2,8.21A62,62,0,0,1,1948,2626.15Z"/><path class="cls-7" d="M1594.94,2428c-.53-8.22,5.56-11.84,11.74-12.72h.09a21.46,21.46,0,0,1,4.15-.09c61.71,4.59,157.85,40.26,230.95,84.94,30.46,18.53,57,38.84,75.84,59.24,12.63,13.68,21.9,27.63,26.67,41.49a260.89,260.89,0,0,0-33.2-8.21,146.08,146.08,0,0,0-12.63-15.63c-17.12-18.63-41.75-37.34-70.19-54.74-68.24-41.67-156.79-75-215-80.6h-.09c-1.41-.18-2.83-.35-4.24-.44C1601.82,2440.75,1594.76,2437.12,1594.94,2428Z"/><path class="cls-7" d="M1947.21,2632.33a55.57,55.57,0,0,1-7.33,18.63,59.5,59.5,0,0,1-25.08,22.51c-25.16,12.27-62.06,11.3-103.3.35a414.08,414.08,0,0,1-66.39-24.19c-10-4.5-20-9.44-30-14.83-9.62-5.12-19.24-10.59-28.69-16.42-39.11-23.84-76-53-104.88-84.67a306.84,306.84,0,0,1-25.43-31.6c-3.27-4.68-6.36-9.45-9.18-14.22-3.18-5.21-6.09-10.51-8.65-15.8a13,13,0,0,1,23.48-11.39c2.56,5.21,5.39,10.33,8.56,15.45a150.49,150.49,0,0,0,8.83,13.33,244.2,244.2,0,0,0,18.45,23.22c27.37,31.08,63.66,59.86,102.33,83.52,13.59,8.3,27.37,15.89,41.23,22.69,11.65,5.83,23.22,11,34.69,15.54a382.75,382.75,0,0,0,42.3,14.12c35.4,9.36,66,10.86,85.19,1.42a33.51,33.51,0,0,0,14.39-12.63,27.91,27.91,0,0,0,4.24-13.07A222.28,222.28,0,0,1,1947.21,2632.33Z"/><polygon class="cls-5" points="1603.72 2403.18 1615.67 2450.93 1595.91 2453.56 1575.14 2408.74 1603.72 2403.18"/><path class="cls-8" d="M1188.64,2410.86a37,37,0,0,1-6.82,15.46,34.88,34.88,0,0,1-11.76,9.63,42.45,42.45,0,0,1-15.21,4.09,59.88,59.88,0,0,1-17.33-1.21,59.11,59.11,0,0,1-11-3.39,66,66,0,0,1-8.64-4.36,40.35,40.35,0,0,1-6-4.37,21.45,21.45,0,0,1-3.26-3.55,7.16,7.16,0,0,1-.94-3.78,30.32,30.32,0,0,1,.84-6.45c.4-1.88.78-3.4,1.18-4.65a13.33,13.33,0,0,1,1.24-3,3.76,3.76,0,0,1,1.42-1.44,2.7,2.7,0,0,1,1.72-.15,7.54,7.54,0,0,1,3.24,2.26,64.88,64.88,0,0,0,5.22,4.54,53.26,53.26,0,0,0,8,5.13,40.89,40.89,0,0,0,11.29,4,27.86,27.86,0,0,0,8,.63,18.37,18.37,0,0,0,6.47-1.69,12.87,12.87,0,0,0,4.65-3.89,15.06,15.06,0,0,0,2.57-5.93,11.14,11.14,0,0,0-.71-7.26,21.61,21.61,0,0,0-4.62-6.24,57.31,57.31,0,0,0-7-5.84c-2.66-1.91-5.42-3.91-8.27-6a80.91,80.91,0,0,1-8.07-6.85,37.33,37.33,0,0,1-6.54-8.23,31.59,31.59,0,0,1-3.76-10.29,33.25,33.25,0,0,1,.51-13,34.09,34.09,0,0,1,6.22-14.1,30.75,30.75,0,0,1,10.61-8.77,36.56,36.56,0,0,1,13.77-3.66,55.3,55.3,0,0,1,15.66,1.15,56.43,56.43,0,0,1,8.15,2.39,55,55,0,0,1,7.4,3.34,47.17,47.17,0,0,1,5.9,3.78,16.09,16.09,0,0,1,3.22,3.06,7.66,7.66,0,0,1,.88,1.76,7.53,7.53,0,0,1,.21,1.82,16.89,16.89,0,0,1-.26,2.69c-.15,1.06-.4,2.36-.73,3.93s-.71,3.2-1,4.38a19.51,19.51,0,0,1-1.08,2.88,3.92,3.92,0,0,1-1.25,1.52,2.29,2.29,0,0,1-1.73.21,7.81,7.81,0,0,1-2.87-1.93c-1.28-1.13-2.87-2.44-4.75-3.89a52.67,52.67,0,0,0-6.77-4.24,32.85,32.85,0,0,0-8.86-3.15,22.08,22.08,0,0,0-7-.48,14.11,14.11,0,0,0-5.35,1.61,10.15,10.15,0,0,0-3.75,3.4,13.07,13.07,0,0,0-2,4.75,11,11,0,0,0,.71,7.17,21,21,0,0,0,4.63,6.29,63.35,63.35,0,0,0,7.24,5.84c2.71,1.92,5.49,4,8.35,6a88,88,0,0,1,8.16,6.87,39,39,0,0,1,6.67,8.3,30.42,30.42,0,0,1,3.38,22.89Zm106,49.76-14.25-111.23a9.2,9.2,0,0,0-.74-3,5,5,0,0,0-2.2-2,22.21,22.21,0,0,0-4.8-1.69c-2.07-.53-4.9-1.16-8.44-1.91-3.08-.65-5.56-1.14-7.42-1.44a18.8,18.8,0,0,0-4.54-.28,4.31,4.31,0,0,0-2.6,1,8.26,8.26,0,0,0-1.78,2.2L1190,2438.34a30.06,30.06,0,0,0-2.42,4.77,3.6,3.6,0,0,0,0,3.09,5,5,0,0,0,3,2,63.07,63.07,0,0,0,6.44,1.66q3.88.81,6.33,1.13a13.79,13.79,0,0,0,3.83.11,4,4,0,0,0,2.18-1,7,7,0,0,0,1.39-1.93l12.19-21.29,44.07,9.31,2.71,25.1a5.43,5.43,0,0,0,.5,2.07,3.68,3.68,0,0,0,1.64,1.54,18.54,18.54,0,0,0,3.82,1.38c1.68.45,4.08,1,7.15,1.64s5.29,1,7,1.25a6.3,6.3,0,0,0,3.79-.42,3.28,3.28,0,0,0,1.32-2.72,33.33,33.33,0,0,0-.27-5.43Zm-35.52-97.1,5.94,53.16-32.79-6.92,26.76-46.27.09,0Zm116.27,113a38.25,38.25,0,0,1-1.18,4.51,15.26,15.26,0,0,1-1.32,2.91,3.63,3.63,0,0,1-1.52,1.51,2.4,2.4,0,0,1-1.68.23l-53.52-11.29a7.49,7.49,0,0,1-4.63-2.81c-1.11-1.46-1.37-3.51-.83-6.16l22.39-106.13a2.74,2.74,0,0,1,.94-1.52,4.61,4.61,0,0,1,2.19-.75,19.2,19.2,0,0,1,3.82.06,50.13,50.13,0,0,1,5.78.93,52.16,52.16,0,0,1,5.74,1.5A20.63,20.63,0,0,1,1355,2361a4.54,4.54,0,0,1,1.7,1.58,2.5,2.5,0,0,1,.23,1.77l-19.83,94,36.71,7.74a2.6,2.6,0,0,1,1.47.84,3.86,3.86,0,0,1,.79,1.86,11.73,11.73,0,0,1,0,3.14,43.12,43.12,0,0,1-.75,4.6Zm83,18.14a37.67,37.67,0,0,1-1.14,4.36,11.59,11.59,0,0,1-1.28,2.7,3.94,3.94,0,0,1-1.47,1.36,2.43,2.43,0,0,1-1.59.17l-58.61-12.36a7.5,7.5,0,0,1-4.62-2.82c-1.12-1.45-1.38-3.5-.83-6.16l21.51-101.87c.54-2.65,1.64-4.42,3.23-5.31a7.59,7.59,0,0,1,5.36-.7l58.34,12.32a2.38,2.38,0,0,1,1.35.76,3.87,3.87,0,0,1,.75,1.8,14.11,14.11,0,0,1,.06,3,46,46,0,0,1-1.85,8.81,11.2,11.2,0,0,1-1.28,2.7,4.12,4.12,0,0,1-1.42,1.37,2.33,2.33,0,0,1-1.55.19l-41.69-8.8-6,28.48,35.13,7.41a2.43,2.43,0,0,1,1.38.8,3.73,3.73,0,0,1,.81,1.78,11.29,11.29,0,0,1,.09,3,33.89,33.89,0,0,1-.69,4.3,38.11,38.11,0,0,1-1.12,4.3,10.47,10.47,0,0,1-1.28,2.6,3,3,0,0,1-1.45,1.23,2.51,2.51,0,0,1-1.56.16l-35.14-7.42-6.94,32.91,42,8.86a2.37,2.37,0,0,1,1.37.8,3.82,3.82,0,0,1,.81,1.85,11.76,11.76,0,0,1,.07,3A36.67,36.67,0,0,1,1458.4,2494.67Z"/><path class="cls-3" d="M2642.59,2899.34l-45.07-26.85,126.84-213a26.32,26.32,0,0,1,36-9.12h0a26.28,26.28,0,0,1,9.1,36Z"/><path class="cls-3" d="M2563.67,2947.44l2.82-130a23.86,23.86,0,0,1,36.08-20L2712.7,2863a23.88,23.88,0,0,1-.38,41.25l-113,64.42a23.86,23.86,0,0,1-35.67-21.26Z"/><path class="cls-3" d="M2190.57,2461.15h0a22.48,22.48,0,0,1,22.43,22.42v178.84a22.48,22.48,0,0,1-22.43,22.42h0a22.5,22.5,0,0,1-22.44-22.42V2483.57A22.5,22.5,0,0,1,2190.57,2461.15Z"/><path class="cls-3" d="M2078.73,2573h0a22.5,22.5,0,0,1,22.43-22.42H2280a22.5,22.5,0,0,1,22.44,22.42h0a22.5,22.5,0,0,1-22.44,22.44H2101.16A22.49,22.49,0,0,1,2078.73,2573Z"/><path class="cls-3" d="M2374,3541.85h492.5c13.15,6.35,51.3,30.06,46.83,89.24H2341.17a27.32,27.32,0,0,0,0,54.63h595.56a27.3,27.3,0,0,0,26.68-21.41c19.52-88.19-23.14-141-60.3-164.57l82-389.78,179.68-73.64a27.32,27.32,0,1,0-20.72-50.56L2951,3064.89a27.29,27.29,0,0,0-13.8,12.53H2203.81c-16.12,0-29.18,12.24-29.18,27.32s13.06,27.31,29.18,27.31h33.49L2347.66,3522a27.34,27.34,0,0,0,26.29,19.87Zm476-54.64h-49.23l7-50.19h52.75l-10.56,50.19Zm19.74-93.9h-55.83l7.88-56.35h59.8l-11.85,56.35Zm21-100.08h-62.87l7.86-56.35h66.88l-11.87,56.35Zm21.06-100.06h-69.94l8.53-61.12h74.25l-12.84,61.12Zm-105.54-61.12-8.53,61.12h-91.11l2.39-61.12Zm-141,0-2.39,61.12h-85.76l-5.18-61.12Zm-137.2,0,5.19,61.12h-86.79l-9.17-61.12Zm-135,0,9.14,61.12h-90.81l-17.27-61.12Zm97.41,355.16L2483,3437h71l4.26,50.19Zm-14.07-93.9L2468,3337h77.46l4.81,56.35Zm-15-100.08-8.45-56.35h83.95l4.79,56.35Zm-52.64-56.35,8.43,56.35h-77.49l-15.95-56.35Zm15,100.08,8.45,56.35H2368L2352.09,3337Zm15,100.06,7.52,50.19h-51.68L2380.4,3437Zm163.3,50.19-4.28-50.19h55.53l-2,50.19Zm-8-93.9-4.8-56.35h67.93l-2.19,56.35Zm-8.5-100.08-4.78-56.35h80.34l-2.21,56.35Zm109.51,194,2-50.19h66.54l-7,50.19Zm3.67-93.9,2.19-56.35h76.62l-7.87,56.35Zm3.92-100.08,2.19-56.35h86.7l-7.9,56.35Z"/><path class="cls-9" d="M2826.53,3785.85a41,41,0,1,0,41-41A41,41,0,0,0,2826.53,3785.85Z"/><path class="cls-5" d="M2786.47,3785.85a81.06,81.06,0,1,0,81.06-81A81.07,81.07,0,0,0,2786.47,3785.85Z"/><path class="cls-8" d="M2826.53,3785.85a41,41,0,1,0,41-41A41,41,0,0,0,2826.53,3785.85Z"/><path class="cls-5" d="M2354.09,3785.85a81.05,81.05,0,1,0,81-81A81.07,81.07,0,0,0,2354.09,3785.85Z"/><path class="cls-8" d="M2394.16,3785.85a41,41,0,1,0,41-41A41,41,0,0,0,2394.16,3785.85Z"/><path class="cls-10" d="M1234.86,3689.75c10.19-9.59,23.91-32.62,39-57.89,15.54-26.16,32.47-54.57,49.63-75.32,18.82-22.78,38.92-33.25,55.36-34.22a38,38,0,0,1,23.09,5.7,36.17,36.17,0,0,1,14.69,18.83c5,14.08,3.06,33.88-9.29,56.51-13.85,25.34-35.8,46.87-61,64.55-30.35,21.29-65.63,37.14-96.6,47.12l-63.69,20.55,48.78-45.83Zm64.78-42.57h0c-4.17,7-8.26,13.86-12.22,20.37a306.46,306.46,0,0,0,41.63-24.28c21.74-15.28,40.5-33.47,51.86-54.31,7.87-14.4,9.65-25.41,7.28-32.1a6.56,6.56,0,0,0-2.43-3.5,8.61,8.61,0,0,0-5.18-1c-8.84.51-20.89,7.63-33.88,23.37C1330.51,3595.33,1314.43,3622.34,1299.64,3647.18Z"/><path class="cls-10" d="M1234.86,3689.75c-10.2-9.59-23.92-32.62-39-57.89-15.58-26.16-32.5-54.57-49.65-75.32-18.81-22.78-38.91-33.25-55.33-34.22a38,38,0,0,0-23.11,5.7,36.12,36.12,0,0,0-14.69,18.83c-5,14.08-3.07,33.88,9.28,56.51,13.84,25.34,35.79,46.87,60.95,64.55,30.36,21.29,65.64,37.14,96.61,47.12l63.69,20.55-48.78-45.83Zm-64.78-42.57h0c4.16,7,8.26,13.86,12.22,20.37a305.85,305.85,0,0,1-41.63-24.28c-21.73-15.28-40.5-33.47-51.87-54.31-7.86-14.4-9.64-25.41-7.28-32.1a6.65,6.65,0,0,1,2.42-3.5,8.68,8.68,0,0,1,5.2-1c8.83.51,20.88,7.63,33.89,23.37C1139.2,3595.33,1155.28,3622.34,1170.08,3647.18Z"/><rect class="cls-11" x="981.34" y="3760.58" width="507.05" height="185.66"/><rect class="cls-11" x="956.13" y="3689.75" width="557.44" height="70.84"/><rect class="cls-11" x="1234.86" y="3760.61" width="253.53" height="185.63"/><polygon class="cls-7" points="981.34 3760.61 1234.86 3760.61 1234.86 3689.74 956.13 3689.74 956.13 3760.61 981.34 3760.61"/><rect class="cls-2" x="1201.92" y="3689.75" width="65.88" height="256.5"/><path class="cls-10" d="M1217.39,3630.38h34.92a15.54,15.54,0,0,1,15.49,15.47v28.41a15.54,15.54,0,0,1-15.49,15.49h-34.92a15.52,15.52,0,0,1-15.47-15.49v-28.41A15.51,15.51,0,0,1,1217.39,3630.38Z"/><path class="cls-8" d="M2545.34,2344.32a103.76,103.76,0,0,1,18.91,3.29l25.21-25.47,39.47,25-12.26,33.67a104,104,0,0,1,11.07,15.7l35.82-.19,10.24,45.59-32.49,15.13A103,103,0,0,1,2638,2476l25.47,25.21-25,39.46-33.66-12.26a106.7,106.7,0,0,1-15.71,11.07l.19,35.82-45.61,10.23-15.12-32.47a104.38,104.38,0,0,1-18.94-3.29l-25.21,25.46-39.45-25,12.26-33.67a103.91,103.91,0,0,1-11.07-15.71l-35.83.18-10.23-45.58,32.47-15.14a104,104,0,0,1,3.31-18.92l-25.48-25.2,25-39.48,33.67,12.26a105.59,105.59,0,0,1,15.71-11.06l-.17-35.83,45.58-10.22,15.14,32.47Zm-25.9,26.26h0a80.05,80.05,0,1,0,95.63,60.58A80.05,80.05,0,0,0,2519.44,2370.58Z"/><path class="cls-10" d="M2818.8,2352h-26.86a53.86,53.86,0,0,0-66.82-72.45,71.31,71.31,0,0,0-133.45-9.61,78.72,78.72,0,0,0-118.57,67.9,79.42,79.42,0,0,0,1.28,14.16h-5.16a49.82,49.82,0,0,0-49.66,49.67h0a49.81,49.81,0,0,0,49.66,49.67H2818.8a49.81,49.81,0,0,0,49.66-49.67h0A49.81,49.81,0,0,0,2818.8,2352Z"/><path class="cls-10" d="M1156.13,2785.33h-26.87a53.86,53.86,0,0,0-66.82-72.45A71.31,71.31,0,0,0,929,2703.27a78.71,78.71,0,0,0-118.56,67.9,80.45,80.45,0,0,0,1.27,14.16h-5.15A49.81,49.81,0,0,0,756.89,2835h0a49.8,49.8,0,0,0,49.66,49.66h349.58a49.8,49.8,0,0,0,49.66-49.66h0A49.82,49.82,0,0,0,1156.13,2785.33Z"/><path class="cls-7" d="M1819.87,2319.15c0,13.18,10.54,24,23.43,24h245.19c12.9,0,23.43-10.79,23.43-24V2137c0-13.19-10.53-24-23.43-24H1843.3c-12.89,0-23.43,10.78-23.43,24Z"/><path class="cls-9" d="M1798.59,2239.57a18.85,18.85,0,0,0,18.63,19.06h88.46a18.84,18.84,0,0,0,18.63-19.06V2214.8a18.83,18.83,0,0,0-18.63-19.05h-88.46a18.84,18.84,0,0,0-18.63,19.05Z"/><path class="cls-12" d="M1870.59,2226.39a16,16,0,1,0,16-16.38A16.2,16.2,0,0,0,1870.59,2226.39Z"/><path class="cls-8" d="M1842.1,2148.61v1.83a2.25,2.25,0,0,1-2.25,2.25h-17.73a2.25,2.25,0,0,1-2.25-2.25v-1.83a2.24,2.24,0,0,1,2.25-2.24h17.73a2.24,2.24,0,0,1,2.25,2.24Zm267.58-2.24h-3.07a2.25,2.25,0,0,0-2.26,2.24v1.83a2.26,2.26,0,0,0,2.26,2.25h3.07a2.25,2.25,0,0,0,2.24-2.25v-1.83a2.25,2.25,0,0,0-2.24-2.24Zm-18.66,2.24v1.83a2.24,2.24,0,0,1-2.24,2.25H2071a2.25,2.25,0,0,1-2.25-2.25v-1.83a2.25,2.25,0,0,1,2.25-2.24h17.74a2.24,2.24,0,0,1,2.24,2.24Zm-35.55,0v1.83a2.25,2.25,0,0,1-2.25,2.25h-17.74a2.24,2.24,0,0,1-2.24-2.25v-1.83a2.24,2.24,0,0,1,2.24-2.24h17.74a2.25,2.25,0,0,1,2.25,2.24Zm-35.56,0v1.83a2.25,2.25,0,0,1-2.24,2.25h-17.75a2.24,2.24,0,0,1-2.24-2.25v-1.83a2.24,2.24,0,0,1,2.24-2.24h17.75a2.25,2.25,0,0,1,2.24,2.24Zm-35.57,0v1.83a2.25,2.25,0,0,1-2.25,2.25h-17.72a2.25,2.25,0,0,1-2.26-2.25v-1.83a2.25,2.25,0,0,1,2.26-2.24h17.72a2.24,2.24,0,0,1,2.25,2.24Zm-35.56,0v1.83a2.24,2.24,0,0,1-2.24,2.25H1928.8a2.25,2.25,0,0,1-2.25-2.25v-1.83a2.25,2.25,0,0,1,2.25-2.24h17.74a2.24,2.24,0,0,1,2.24,2.24Zm-35.56,0v1.83a2.24,2.24,0,0,1-2.24,2.25h-17.75a2.24,2.24,0,0,1-2.24-2.25v-1.83a2.24,2.24,0,0,1,2.24-2.24H1911a2.24,2.24,0,0,1,2.24,2.24Zm-35.56,0v1.83a2.25,2.25,0,0,1-2.24,2.25h-17.74a2.25,2.25,0,0,1-2.25-2.25v-1.83a2.24,2.24,0,0,1,2.25-2.24h17.74A2.25,2.25,0,0,1,1877.66,2148.61Z"/><path class="cls-8" d="M1842.1,2304.19V2306a2.25,2.25,0,0,1-2.25,2.24h-17.73a2.25,2.25,0,0,1-2.25-2.24v-1.84a2.25,2.25,0,0,1,2.25-2.25h17.73a2.25,2.25,0,0,1,2.25,2.25Zm267.58-2.25h-3.07a2.26,2.26,0,0,0-2.26,2.25V2306a2.26,2.26,0,0,0,2.26,2.24h3.07a2.26,2.26,0,0,0,2.24-2.24v-1.84a2.26,2.26,0,0,0-2.24-2.25Zm-18.66,2.25V2306a2.24,2.24,0,0,1-2.24,2.24H2071a2.26,2.26,0,0,1-2.25-2.24v-1.84a2.26,2.26,0,0,1,2.25-2.25h17.74a2.24,2.24,0,0,1,2.24,2.25Zm-35.55,0V2306a2.26,2.26,0,0,1-2.25,2.24h-17.74a2.25,2.25,0,0,1-2.24-2.24v-1.84a2.25,2.25,0,0,1,2.24-2.25h17.74a2.26,2.26,0,0,1,2.25,2.25Zm-35.56,0V2306a2.26,2.26,0,0,1-2.24,2.24h-17.75a2.24,2.24,0,0,1-2.24-2.24v-1.84a2.24,2.24,0,0,1,2.24-2.25h17.75a2.26,2.26,0,0,1,2.24,2.25Zm-35.57,0V2306a2.25,2.25,0,0,1-2.25,2.24h-17.72a2.25,2.25,0,0,1-2.26-2.24v-1.84a2.26,2.26,0,0,1,2.26-2.25h17.72a2.25,2.25,0,0,1,2.25,2.25Zm-35.56,0V2306a2.24,2.24,0,0,1-2.24,2.24H1928.8a2.26,2.26,0,0,1-2.25-2.24v-1.84a2.26,2.26,0,0,1,2.25-2.25h17.74a2.24,2.24,0,0,1,2.24,2.25Zm-35.56,0V2306a2.25,2.25,0,0,1-2.24,2.24h-17.75A2.25,2.25,0,0,1,1891,2306v-1.84a2.25,2.25,0,0,1,2.24-2.25H1911a2.25,2.25,0,0,1,2.24,2.25Zm-35.56,0V2306a2.26,2.26,0,0,1-2.24,2.24h-17.74a2.25,2.25,0,0,1-2.25-2.24v-1.84a2.25,2.25,0,0,1,2.25-2.25h17.74A2.26,2.26,0,0,1,1877.66,2304.19Z"/><path class="cls-10" d="M3212.37,2557.91H2887.14a31.83,31.83,0,0,0-31.73,31.73V2780a31.83,31.83,0,0,0,31.73,31.73h325.23a31.82,31.82,0,0,0,31.74-31.73V2589.64A31.82,31.82,0,0,0,3212.37,2557.91Z"/><rect class="cls-13" x="2855.41" y="2609.81" width="388.7" height="51.23"/><rect class="cls-14" x="2996.69" y="2684.84" width="247.43" height="32.23"/><rect class="cls-14" x="2886.12" y="2684.84" width="96.55" height="32.23"/><path class="cls-15" d="M3127.07,2811.76H2887.14a31.83,31.83,0,0,1-31.73-31.73V2589.64a31.82,31.82,0,0,1,31.73-31.73h97.13Z"/><path class="cls-7" d="M948.72,2459.22q0,23.24-11.64,34t-24.15,10.76v22.36H900.42v-22.36c-10.16,0-18.93-4.2-26.38-12.52s-11.18-21.18-11.18-38.46h20.57c0,14.89,2.06,24.26,6.26,28.17s7.75,5.8,10.73,5.8v-58.12q-21.46-11.61-27.71-21a38.31,38.31,0,0,1-6.3-21.9c0-10.72,3.13-19.53,9.43-26.35s14.42-10.92,24.58-12.1v-17h12.51v17q15.23,0,24.61,12.1t9.38,29.95H927.24q0-13.45-4.92-19.24c-3.29-3.89-6.41-5.84-9.39-5.84v50.1a95.24,95.24,0,0,1,25,17.89c7.18,7.14,10.76,16.11,10.76,26.83Zm-48.3-51.89V2364.4q-5.4,0-10.27,4.93c-3.29,3.27-4.92,8.21-4.92,14.76a28.57,28.57,0,0,0,2.66,12.06c1.8,3.88,6,7.63,12.53,11.18Zm28.6,56.35q0-9.85-4.45-16.09a54.17,54.17,0,0,0-11.64-11.65v51a22.46,22.46,0,0,0,10.72-5.35C927.24,2478.61,929,2472.61,929,2463.68Z"/><path class="cls-3" d="M3135.6,3415.51q0,23.25-11.64,34c-7.74,7.16-15.79,10.77-24.14,10.77v22.35H3087.3v-22.35c-10.16,0-18.91-4.21-26.36-12.53s-11.18-21.19-11.18-38.46h20.56c0,14.89,2.07,24.26,6.26,28.17s7.76,5.8,10.72,5.8V3385.1q-21.47-11.61-27.71-21a38.38,38.38,0,0,1-6.29-21.9q0-16.08,9.43-26.35c6.26-6.88,14.41-10.91,24.57-12.1v-17h12.52v17a29.7,29.7,0,0,1,24.61,12.1q9.39,12,9.38,29.95h-19.68q0-13.45-4.93-19.24c-3.28-3.88-6.39-5.83-9.38-5.83v50.09a95.36,95.36,0,0,1,25,17.89c7.17,7.14,10.74,16.11,10.74,26.83Zm-48.3-51.89V3320.7c-3.58,0-7,1.64-10.26,4.91s-4.93,8.21-4.93,14.77a28.29,28.29,0,0,0,2.68,12.06c1.79,3.88,5.94,7.62,12.51,11.18Zm28.61,56.35q0-9.85-4.45-16.09a54.43,54.43,0,0,0-11.64-11.66v51a22.4,22.4,0,0,0,10.73-5.35C3114.13,3434.9,3115.91,3428.9,3115.91,3420Z"/><path class="cls-10" d="M842.73,3196.17q0,23.25-11.64,34c-7.74,7.15-15.79,10.76-24.15,10.76v22.36H794.43V3240.9c-10.15,0-18.92-4.21-26.37-12.52s-11.17-21.2-11.17-38.46h20.56c0,14.89,2.06,24.27,6.25,28.16s7.76,5.8,10.73,5.8v-58.11q-21.46-11.61-27.71-21a38.32,38.32,0,0,1-6.29-21.9c0-10.72,3.13-19.53,9.42-26.35s14.43-10.92,24.58-12.11v-17h12.51v17a29.67,29.67,0,0,1,24.61,12.11q9.39,12,9.39,29.94H821.26q0-13.44-4.93-19.24c-3.28-3.88-6.4-5.83-9.39-5.83v50.09a95.39,95.39,0,0,1,25,17.9q10.75,10.71,10.75,26.82Zm-48.3-51.88v-42.93c-3.59,0-7,1.64-10.26,4.92s-4.93,8.21-4.93,14.76a28.47,28.47,0,0,0,2.67,12.07c1.79,3.88,6,7.62,12.52,11.18ZM823,3200.63q0-9.86-4.46-16.08a53.94,53.94,0,0,0-11.64-11.65v51a22.35,22.35,0,0,0,10.73-5.35C821.26,3215.56,823,3209.56,823,3200.63Z"/><path class="cls-5" d="M2359.87,2183.53q0,23.25-11.64,34t-24.14,10.76v22.36h-12.52v-22.36c-10.16,0-18.92-4.21-26.37-12.53s-11.17-21.18-11.17-38.45h20.55c0,14.89,2.07,24.26,6.26,28.17s7.76,5.79,10.73,5.79v-58.11q-21.46-11.61-27.71-21a38.31,38.31,0,0,1-6.3-21.9c0-10.72,3.14-19.53,9.44-26.35s14.41-10.92,24.57-12.11v-17h12.52v17q15.21,0,24.6,12.11t9.38,29.94H2338.4q0-13.44-4.93-19.24t-9.38-5.83v50.09a95.5,95.5,0,0,1,25,17.9q10.77,10.71,10.75,26.82Zm-48.3-51.88v-42.93c-3.59,0-7,1.64-10.26,4.93s-4.93,8.2-4.93,14.76a28.46,28.46,0,0,0,2.67,12.06c1.79,3.88,5.95,7.62,12.52,11.18Zm28.6,56.35q0-9.86-4.45-16.09a54.34,54.34,0,0,0-11.63-11.65v51a22.34,22.34,0,0,0,10.72-5.34C2338.4,2202.93,2340.17,2196.93,2340.17,2188Z"/></g></g></svg>